<?xml version="1.0" encoding="utf-8" ?><svg xmlns="http://www.w3.org/2000/svg" xmlns:xlink="http://www.w3.org/1999/xlink" viewBox="0 0 1024 1024"><defs><linearGradient id="gradient_0" gradientUnits="userSpaceOnUse" x1="502.23419" y1="614.4151" x2="426.67642" y2="204.55177"><stop offset="0" stop-color="#BF8C40"/><stop offset="1" stop-color="#DDB35F"/></linearGradient></defs><path fill="url(#gradient_0)" d="M367.104 214.371C441.357 212.933 516.256 215.436 590.565 214.282C580.584 223.472 570.528 235.878 560.464 244.624C554.596 245.03 544.89 244.702 538.702 244.695L496.33 244.653C463.668 244.643 427.939 245.426 395.591 244.664C397.406 295.967 393.052 346.413 398.6 397.97C404.11 449.173 407.691 471.173 459.915 489.95C469.089 493.291 481.697 496.905 490.157 500.347L490.342 618.957C480.273 619.088 469.946 618.715 459.912 619.163C459.069 596.39 460.029 573.067 459.668 550.233C459.538 542.024 459.253 531.934 460.06 523.964C449.386 519.655 438.102 514.342 427.947 508.915C416.208 502.674 396.4 490.671 390.356 478.761C379.117 456.615 376.875 451.573 353.705 440.976C329.359 429.841 309.61 403.76 300.389 378.914C295.403 365.479 292.453 348.826 290.156 334.57C285.384 306.891 282.555 279.392 282.432 251.247L366.996 251.131C367.234 239.047 367.031 226.518 367.104 214.371ZM371.569 418.818C369.85 403.48 369.112 385.732 368.435 370.304C367.199 340.562 366.728 310.793 367.024 281.026C350.185 281.047 327.312 281.802 310.99 281.006C317.04 325.671 318.423 381.083 357.801 409.991C362.287 413.285 366.776 416.02 371.569 418.818Z"/><defs><linearGradient id="gradient_1" gradientUnits="userSpaceOnUse" x1="522.4386" y1="763.83875" x2="462.26215" y2="512.80585"><stop offset="0" stop-color="#B27A2F"/><stop offset="1" stop-color="#DEB460"/></linearGradient></defs><path fill="url(#gradient_1)" d="M571.57 484.938C571.801 484.944 572.033 484.928 572.262 484.956C576.056 485.416 591.56 504.013 595.014 507.789C581.069 514.926 562.668 524.852 548.458 530.942C548.757 555.163 548.357 579.743 548.51 604.002C548.55 610.35 548.871 633.606 548.13 638.126L601.983 638.156C604.337 641.721 607.08 645.562 609.682 648.959C623.735 667.302 636.602 687.369 650.928 705.436C651.263 714.654 651.022 725.65 651.03 734.99C633.627 734.596 615.145 734.893 597.675 734.894L499.25 734.868L417.506 734.838C403.157 734.833 386.688 734.433 372.528 735.058C372.758 725.438 372.09 713.196 373.059 703.997C388.779 682.091 404.979 660.518 420.298 638.285C430.583 637.796 443.039 638.106 453.514 638.111L518.058 638.056L517.925 508.588C535.957 501.049 553.842 493.164 571.57 484.938ZM410.874 703.008L590.25 702.981L613.105 703C606.396 695.492 591.986 676.609 586.188 668.157L485.75 668.174C469.782 668.139 452.936 668.408 437.045 668.054C428.635 679.937 419.908 691.592 410.874 703.008Z"/><defs><linearGradient id="gradient_2" gradientUnits="userSpaceOnUse" x1="690.58942" y1="454.61411" x2="670.99066" y2="249.67969"><stop offset="0" stop-color="#C49243"/><stop offset="1" stop-color="#DCB25E"/></linearGradient></defs><path fill="url(#gradient_2)" d="M640.967 251.191C646.002 251.057 651.313 251.071 656.357 251.144C684.814 251.557 713.597 250.532 742.02 251.243C741.409 255.383 741.354 262.165 741.155 266.508C740.805 275.165 740.226 283.811 739.418 292.438C737.943 307.574 735.865 322.645 733.19 337.615C726.599 375.058 718.708 403.283 687.681 428.993C677.662 437.18 666.58 441.827 655.477 447.933C651.502 450.118 643.194 458.668 639.885 462.156C633.918 457.255 624.168 446.639 618.742 440.827C619.133 435.518 621.008 426.971 621.836 421.28C623.474 409.576 624.714 397.82 625.555 386.032C628.154 346.864 626.878 304.705 627.111 265.174C629.974 262.369 638.293 252.553 640.967 251.191ZM651.535 418.884C663.295 412.102 673.954 405.38 682.261 394.204C704.283 366.886 707.932 315.548 711.618 281.088L676.182 281.069C669.956 281.07 662.003 281.28 655.965 280.927C656.08 312.525 656.404 343.852 654.465 375.398C653.628 389.008 653.177 405.414 651.535 418.884Z"/><defs><linearGradient id="gradient_3" gradientUnits="userSpaceOnUse" x1="577.62006" y1="476.63858" x2="519.81299" y2="242.30505"><stop offset="0" stop-color="#A3121D"/><stop offset="1" stop-color="#CF2131"/></linearGradient></defs><path fill="url(#gradient_3)" d="M595.275 231.092C593.96 229.118 593.557 228.574 591.595 227.251L591.335 226.259C592.937 224.588 631.018 214.135 634.887 213.573C632.229 224.274 626.452 249.148 622.865 258.659C620.574 256.449 618.841 254.833 616.378 252.817C609.508 261.379 591.918 277.96 583.413 286.481L518.648 351.319C511.579 358.347 495.208 373.683 489.988 380.307L490.157 500.347C481.697 496.905 469.089 493.291 459.915 489.95C459.073 462.779 459.576 433.349 459.561 406.031L459.572 258.062C469.575 258.037 480.124 257.841 490.085 258.104C490.245 284.834 490.216 311.565 489.997 338.295C496.333 330.576 502.931 324.238 509.976 317.188L535.794 291.266C554.335 272.492 576.17 248.819 595.275 231.092Z"/><path fill="#D7A858" d="M806.755 808.48C808.412 809.714 814.037 817.667 815.566 819.744C806.952 825.274 795.183 831.709 786.164 837.017C796.604 837.12 807.044 837.116 817.483 837.003C835.055 836.929 854.328 835.687 858.133 858.549C859.265 865.026 857.746 871.687 853.919 877.034C844.652 890.045 831.077 888.104 817.072 888.111L786.878 888.117L761.932 888.1C750.644 888.085 743.002 889.134 733.438 882.137C722.086 890.278 711.638 891.365 699.942 883.078C688.521 890.899 676.818 890.683 665.929 882.136C653.856 891.679 642.893 890.302 630.979 881.724C623.386 887.874 616.147 888.654 606.541 888.481C587.303 888.135 567.379 889.525 548.222 887.686C544.764 887.354 539.394 884.457 536.739 882.368C523.788 872.181 528.598 856.502 527.151 842.652L527.077 841.981C532.795 840.268 538.349 838.631 543.986 836.654C543.952 844.638 543.415 860.392 544.956 867.478C551.789 876.306 562.117 873.686 571.952 873.979C577.004 874.13 582.3 873.925 587.375 873.897C594.524 873.863 602.757 874.396 609.792 873.814C614.826 873.397 617.801 871.141 620.754 867.277C621.973 861.469 621.478 848.579 621.415 842.023C627.254 840.453 632.383 839.163 638.037 836.978C637.965 844.534 636.409 868.154 640.814 871.091C662.283 885.401 658.12 849.015 658.085 843.966C663.339 844.039 668.825 843.952 674.098 843.935C674.017 850.541 673.515 862.756 674.77 868.883C678.171 873.226 684.772 876.796 689.365 871.785C694.24 866.467 692.382 851.55 692.054 844.173C697.07 844.073 702.086 844.036 707.102 844.063C706.888 850.322 705.819 868.272 709.597 870.943C729.77 885.207 725.284 848.239 725.268 843.312C727.847 842.012 738.616 838.296 741.497 837.524C741.622 846.086 741.171 854.653 741.585 863.215C742.16 874.956 753.043 874.018 761.878 873.888C785.29 873.544 809.022 874.559 832.386 873.291C836.2 873.084 838.788 869.483 840.856 866.613C843.035 849.418 830.024 850.873 817.796 850.903C813.918 850.912 809.954 850.901 806.073 850.903L757.955 851.047C758.057 846.266 757.903 841.08 757.854 836.269C772.448 827.948 792.463 815.69 806.755 808.48Z"/><defs><linearGradient id="gradient_4" gradientUnits="userSpaceOnUse" x1="356.02652" y1="890.73114" x2="346.80927" y2="803.65118"><stop offset="0" stop-color="#D39F51"/><stop offset="1" stop-color="#E7BE6D"/></linearGradient></defs><path fill="url(#gradient_4)" d="M301.915 807.113L302.469 807.11C303.807 808.79 302.443 828.563 302.983 832.424C304.65 844.337 296.858 873.872 315.629 873.78C342.471 873.648 368.096 874.603 394.721 873.341C398.155 873.178 401.364 868.63 402.904 866.046C403.957 850.554 395.102 851.059 382.489 850.906C377.294 850.843 371.941 850.894 366.736 850.893C350.977 850.817 335.218 850.882 319.461 851.087C319.624 845.754 319.59 841.765 319.397 836.44C326.798 831.507 336.785 826.121 344.583 821.648C351.699 817.565 361.13 811.935 368.417 808.585C371.262 811.963 374.331 816.167 377.151 819.717C376.389 820.277 374.305 821.498 373.419 822.05C366.729 825.66 354.673 832.843 348.507 837.029L376.675 836.942C396.137 836.87 415.664 835.321 420.131 860.435C420.656 867.682 417.84 874.656 412.93 879.888C406.762 886.459 400.607 888.088 391.973 888.081C371.661 888.062 351.293 888.254 330.988 888.115C317.927 887.572 303.729 890.747 293.454 880.444C284.962 871.929 286.647 857.22 286.606 845.948L286.513 811.438C291.144 810.468 297.267 808.478 301.915 807.113Z"/><path fill="#B11623" d="M516.391 364.805C520.065 366.166 618.223 466.759 628.397 476.427C621.644 482.646 614.202 490.632 607.483 497.195C603.706 495.954 508.156 398.341 495.46 385.701C502.013 378.793 509.59 371.565 516.391 364.805Z"/><path fill="#B11623" d="M470.67 836.669C479.819 836.708 488.969 836.691 498.119 836.62C497.682 854.734 497.799 876.653 498.167 894.796C486.862 901.169 472.57 911.205 461.586 918.512C459.267 915.977 456.903 913.173 454.628 910.572C453.375 909.215 452.362 907.83 451.241 906.365C458.169 901.227 472.586 892.72 480.37 887.782C470.627 888.068 462.966 888.944 454.727 882.175C449.674 878.023 446.508 872.01 445.944 865.494C444.461 849.754 454.897 837.711 470.67 836.669ZM471.877 873.938C475.625 874.16 482.485 875.317 482.37 869.274C482.256 863.334 481.313 857.576 481.938 851.58C479.038 851.377 475.214 850.994 472.413 851.141C468.783 851.824 466.536 852.562 464.325 855.807C462.374 858.691 461.744 862.27 462.592 865.647C463.3 868.637 465.238 871.189 467.93 872.673C469.439 873.497 470.222 873.655 471.877 873.938Z"/><path fill="#D7A858" d="M272.739 836.983L273.52 837.291C274.068 838.654 273.901 857.121 273.963 860.245C275.36 885.315 253.582 890.755 232.913 888.515C211.69 886.214 171.027 897.686 165.014 868.489C164.259 864.825 164.44 859.192 164.443 855.347L164.355 842.382C169.792 840.936 175.196 839.366 180.563 837.675C180.477 846.022 178.539 865.262 184.551 870.776C186.067 872.162 187.937 873.099 189.954 873.485C192.772 874.002 195.838 873.95 198.696 873.949C213.931 873.899 229.161 874.054 244.393 873.924C256.646 873.82 257.558 864.79 257.342 854.884C257.252 850.735 257.145 846.507 256.993 842.354C262.081 840.741 267.885 839.063 272.739 836.983Z"/><path fill="#D7A858" d="M203.547 899.233C214.07 899.119 224.594 899.091 235.117 899.15C234.922 902.76 235.529 921.543 234.46 923.042C229.667 922.969 224.874 923.017 220.083 923.185C220.062 919.477 220.074 916.658 220.384 912.978C215.653 912.931 207.999 912.742 203.501 913.36C203.445 908.651 203.461 903.942 203.547 899.233Z"/><path fill="#D7A858" d="M589.07 899.347L589.499 899.323C590.311 900.523 590.023 912.679 590.032 915.02C584.976 914.948 579.92 914.992 574.866 915.153L574.583 915.012C573.771 913.411 573.995 901.995 573.973 899.26C578.409 899.576 584.509 899.373 589.07 899.347Z"/></svg>