<?xml version="1.0" encoding="utf-8" ?><svg xmlns="http://www.w3.org/2000/svg" xmlns:xlink="http://www.w3.org/1999/xlink" viewBox="0 0 1024 1024"><defs><linearGradient id="gradient_0" gradientUnits="userSpaceOnUse" x1="493.95364" y1="647.94287" x2="426.90103" y2="238.59746"><stop offset="0" stop-color="#C68D36"/><stop offset="1" stop-color="#DFB357"/></linearGradient></defs><path fill="url(#gradient_0)" d="M366.575 246.092L590.219 246.069C580.458 255.567 570.368 266.981 560.533 275.935C553.093 276.22 544.839 276.131 537.379 276.036C489.851 275.427 441.979 276.818 394.489 275.977C395.036 281.209 394.865 288.558 394.861 294.019L394.712 324.513C394.511 361.957 394.424 453.514 409.149 484.872C418.749 505.316 438.819 515.472 459.085 522.721C464.029 524.017 469.816 525.997 474.76 527.585C479.531 529.118 485.67 530.52 490.195 532.117C489.83 545.248 490.186 558.994 490.167 572.187L490.13 651.064L459.04 651.084L459.025 555.08C437.981 546.999 403.037 529.769 390.767 510.67C385.718 503.819 381.797 490.407 374.877 485.415C360.126 474.773 344.754 469.19 330.822 456.539C319.802 446.465 310.963 434.24 304.85 420.617C288.827 385.809 282.091 320.976 280.352 283.146L366.507 283.127L366.575 246.092ZM310.838 312.924C314.022 346.656 319.69 402.775 343.038 428.665C353.475 440.49 359.044 444.198 372.036 452.414C370.33 441.737 369.481 421.606 368.875 410.192C367.428 385.854 366.565 361.484 366.288 337.105C366.265 334.253 366.457 313.253 366.017 312.832C347.624 312.957 329.231 312.987 310.838 312.924Z"/><defs><linearGradient id="gradient_1" gradientUnits="userSpaceOnUse" x1="520.84442" y1="793.40399" x2="463.19055" y2="545.06445"><stop offset="0" stop-color="#B87924"/><stop offset="1" stop-color="#CE993F"/></linearGradient></defs><path fill="url(#gradient_1)" d="M573.299 517.109C576.308 519.176 591.637 534.915 595.577 538.634C582.714 545.716 561.261 555.926 547.973 561.615C548.571 597.627 547.55 634.147 548.15 670.202C560.42 669.68 588.289 670.009 599.868 670.352C602.091 670.417 646.051 731.713 649.956 737.619C650.198 747.419 649.784 757.128 650.256 767.011C631.543 766.564 612.04 766.825 593.277 766.827L495.375 766.831L418.621 766.797C403.419 766.782 387.593 766.547 372.447 766.927C372.449 757.219 372.2 746.142 372.685 736.546C380.041 725.701 390.186 713.159 397.959 702.018C403.718 693.764 415.057 677.284 421.205 670.117L518.492 670.065C518.126 656.241 518.461 640.867 518.462 626.942L518.429 540.117C536.84 532.978 555.521 525.665 573.299 517.109ZM410.841 734.995L523.863 734.897C543.564 734.898 565.953 734.402 585.489 734.958C594.511 734.969 603.683 734.894 612.692 735.04C604.395 724.794 592.471 710.252 585.154 699.502L437.301 699.545C428.353 711.296 419.971 723.34 410.841 734.995Z"/><defs><linearGradient id="gradient_2" gradientUnits="userSpaceOnUse" x1="699.77844" y1="478.63199" x2="660.5459" y2="281.02023"><stop offset="0" stop-color="#C68D36"/><stop offset="1" stop-color="#DCAD51"/></linearGradient></defs><path fill="url(#gradient_2)" d="M641.012 283.174C652.167 282.76 665.515 283.09 676.821 283.087L742.231 283.163C740.391 296.61 740.802 311.412 739.088 325.103C732.851 374.908 728.706 426.733 687.224 460.577C676.713 468.644 665.852 473.876 654.702 480.708C651.01 482.971 643.629 490.224 640.285 493.419C635.898 490.117 622.759 476.484 618.105 471.927C629.578 420.599 627.124 350.701 627.188 297.178C630.198 294.191 638.051 284.62 641.012 283.174ZM651.052 452.551C663.23 444.246 672.063 438.961 681.638 426.965C703.632 400.304 709.318 346.656 711.2 312.844C693.681 313.249 674.315 313.089 656.731 312.889C657.131 320.839 656.675 330.247 656.571 338.402C656.257 359.766 655.586 381.123 654.558 402.464C654.101 412.244 653.589 422.022 653.024 431.797C652.663 437.989 652.295 446.625 651.052 452.551Z"/><path fill="#C11A24" d="M635.194 245.307C631.791 257.736 627.143 279.39 622.88 290.479L616.487 285.072C606.704 295.987 593.372 308.607 582.787 319.205L523.813 378.235L502.399 399.49C499.005 402.857 492.776 408.799 490.008 412.338C490.382 451.62 490.838 492.851 490.195 532.117C485.67 530.52 479.531 529.118 474.76 527.585C469.816 525.997 464.029 524.017 459.085 522.721L459.016 365.713C459.016 342.085 459.782 313.089 458.908 289.808C469.346 290.464 479.947 289.621 490.159 289.994C489.808 316.378 490.345 342.92 489.982 369.472C495.212 362.462 514.027 344.183 520.96 337.312C545.461 313.031 570.064 287.192 594.914 263.381C593.951 261.773 592.808 259.969 591.92 258.347C602.561 255.035 625.346 247.22 635.194 245.307Z"/><path fill="#C11A24" d="M516.472 395.817C522.019 398.723 566.74 444.972 573.973 452.205L609.561 487.774C615.877 494.065 623.599 501.296 629.509 507.809C624.383 511.622 612.409 524.254 607.571 529.179C604.497 527.395 581.935 504.532 577.691 500.255C550.153 472.499 521.754 445.072 494.496 417.076C499.956 412.837 511.05 401.205 516.472 395.817Z"/></svg>
